# xmcd CD database file generated by Grip 3.0.5
# 
# Track frame offsets:
#       183
#       27605
#       46923
#       72360
#       75435
#       99388
#       126175
#       145968
#       174725
#       190205
#       213893
#       230590
#       253300
#       277528
# 
# Disc length: 3899 seconds
# 
# Revision: 2
# Processed by: cddbd v1.4PL0 Copyright (c) Steve Scherf et al.
# Submitted via: Grip 3.0.5
# 
DISCID=c50f390e
DTITLE=Dave Koz - Lucky Man
DYEAR=1993
DGENRE=Jazz
TTITLE0=Shakin' the shack
TTITLE1=You make me smile
TTITLE2=Wait a little while
TTITLE3=Don't look any further
TTITLE4=Don't look any further
TTITLE5=Tender is the night
TTITLE6=Saxman
TTITLE7=After dark
TTITLE8=Lucky man
TTITLE9=Silverlining
TTITLE10=Face of the heart
TTITLE11=More than just a lover
TTITLE12=Show me the way
TTITLE13=Misty
EXTD=
EXTT0=
EXTT1=
EXTT2=
EXTT3=
EXTT4=
EXTT5=
EXTT6=
EXTT7=
EXTT8=
EXTT9=
EXTT10=
EXTT11=
EXTT12=
EXTT13=
PLAYORDER=
